<?xml version="1.0" encoding="UTF-8" standalone="no"?><!DOCTYPE svg PUBLIC "-//W3C//DTD SVG 1.1//EN" "http://www.w3.org/Graphics/SVG/1.1/DTD/svg11.dtd"><svg width="100%" height="100%" viewBox="0 0 12 12" version="1.1" xmlns="http://www.w3.org/2000/svg" xmlns:xlink="http://www.w3.org/1999/xlink" xml:space="preserve" xmlns:serif="http://www.serif.com/" style="fill-rule:evenodd;clip-rule:evenodd;stroke-linejoin:round;stroke-miterlimit:2;"><path id="_2" serif:id="2" d="M6.821,9.68l5.179,0l0,-0.819l-2.422,0c-0.438,0 -0.911,0.035 -1.373,0.069c2.007,-1.822 3.391,-3.195 3.391,-4.579c0,-1.303 -0.922,-2.168 -2.399,-2.168c-1.038,-0 -1.764,0.45 -2.422,1.119l0.542,0.542c0.473,-0.496 1.073,-0.888 1.765,-0.888c1.084,-0 1.603,0.599 1.603,1.441c0,1.223 -1.372,2.515 -3.864,4.718l0,0.565Z" style="fill-rule:nonzero;"/><path id="H" d="M0,9.68l0.96,0l0,-3.531l3.131,-0l0,3.531l0.96,0l0,-7.497l-0.96,-0l0,3.143l-3.131,-0l0,-3.143l-0.96,-0l0,7.497Z" style="fill-rule:nonzero;"/><g id="Ebene1"></g></svg>