<?xml version="1.0" encoding="UTF-8" standalone="no"?><!DOCTYPE svg PUBLIC "-//W3C//DTD SVG 1.1//EN" "http://www.w3.org/Graphics/SVG/1.1/DTD/svg11.dtd"><svg width="100%" height="100%" viewBox="0 0 12 12" version="1.1" xmlns="http://www.w3.org/2000/svg" xmlns:xlink="http://www.w3.org/1999/xlink" xml:space="preserve" xmlns:serif="http://www.serif.com/" style="fill-rule:evenodd;clip-rule:evenodd;stroke-linejoin:round;stroke-miterlimit:2;"><path id="_3" serif:id="3" d="M9.384,9.68c1.438,0 2.616,-0.781 2.616,-2.061c-0,-0.997 -0.827,-1.631 -1.789,-1.835l-0,-0.045c0.894,-0.295 1.54,-0.849 1.54,-1.721c-0,-1.167 -1.031,-1.835 -2.39,-1.835c-0.928,-0 -1.71,0.385 -2.31,0.906l0.498,0.589c0.476,-0.431 1.099,-0.736 1.778,-0.736c0.884,-0 1.473,0.441 1.473,1.143c-0,0.759 -0.657,1.348 -2.367,1.348l-0,0.714c1.902,-0 2.627,0.577 2.627,1.438c0,0.804 -0.747,1.325 -1.733,1.325c-0.928,-0 -1.597,-0.408 -2.072,-0.861l-0.476,0.612c0.532,0.532 1.359,1.019 2.605,1.019Z" style="fill-rule:nonzero;"/><path id="H" d="M0,9.68l0.96,0l0,-3.531l3.131,-0l0,3.531l0.96,0l0,-7.497l-0.96,-0l0,3.143l-3.131,-0l0,-3.143l-0.96,-0l0,7.497Z" style="fill-rule:nonzero;"/><g id="Ebene1"></g></svg>