<?xml version="1.0" encoding="UTF-8" standalone="no"?><!DOCTYPE svg PUBLIC "-//W3C//DTD SVG 1.1//EN" "http://www.w3.org/Graphics/SVG/1.1/DTD/svg11.dtd"><svg width="100%" height="100%" viewBox="0 0 12 12" version="1.1" xmlns="http://www.w3.org/2000/svg" xmlns:xlink="http://www.w3.org/1999/xlink" xml:space="preserve" xmlns:serif="http://www.serif.com/" style="fill-rule:evenodd;clip-rule:evenodd;stroke-linejoin:round;stroke-miterlimit:2;"><path id="_4" serif:id="4" d="M9.92,9.68l0.917,0l-0,-2.068l1.163,-0l0,-0.776l-1.163,0l-0,-4.653l-1.034,-0l-3.749,4.783l-0,0.646l3.866,-0l0,2.068Zm-2.797,-2.844l2.033,-2.561c0.247,-0.365 0.529,-0.729 0.764,-1.093l0.059,-0c-0.024,0.411 -0.047,0.916 -0.059,1.328l0,2.326l-2.797,0Z" style="fill-rule:nonzero;"/><path id="H" d="M0,9.68l0.96,0l0,-3.531l3.131,-0l0,3.531l0.96,0l0,-7.497l-0.96,-0l0,3.143l-3.131,-0l0,-3.143l-0.96,-0l0,7.497Z" style="fill-rule:nonzero;"/><g id="Ebene1"></g></svg>