<?xml version="1.0" encoding="UTF-8" standalone="no"?><!DOCTYPE svg PUBLIC "-//W3C//DTD SVG 1.1//EN" "http://www.w3.org/Graphics/SVG/1.1/DTD/svg11.dtd"><svg width="100%" height="100%" viewBox="0 0 12 12" version="1.1" xmlns="http://www.w3.org/2000/svg" xmlns:xlink="http://www.w3.org/1999/xlink" xml:space="preserve" xmlns:serif="http://www.serif.com/" style="fill-rule:evenodd;clip-rule:evenodd;stroke-linejoin:round;stroke-miterlimit:2;"><path id="_5" serif:id="5" d="M9.278,9.68c1.407,0 2.722,-0.9 2.722,-2.491c0,-1.592 -1.119,-2.307 -2.526,-2.307c-0.565,-0 -0.934,0.115 -1.361,0.3l0.196,-2.18l3.322,-0l-0,-0.819l-4.164,-0l-0.242,3.541l0.507,0.323c0.519,-0.289 0.889,-0.45 1.5,-0.45c1.096,-0 1.811,0.6 1.811,1.615c-0,1.026 -0.831,1.684 -1.869,1.684c-0.992,-0 -1.592,-0.404 -2.076,-0.842l-0.473,0.623c0.565,0.507 1.338,1.003 2.653,1.003Z" style="fill-rule:nonzero;"/><path id="H" d="M0,9.68l0.96,0l0,-3.531l3.131,-0l0,3.531l0.96,0l0,-7.497l-0.96,-0l0,3.143l-3.131,-0l0,-3.143l-0.96,-0l0,7.497Z" style="fill-rule:nonzero;"/><g id="Ebene1"></g></svg>