<?xml version="1.0" encoding="UTF-8" standalone="no"?><!DOCTYPE svg PUBLIC "-//W3C//DTD SVG 1.1//EN" "http://www.w3.org/Graphics/SVG/1.1/DTD/svg11.dtd"><svg width="100%" height="100%" viewBox="0 0 12 12" version="1.1" xmlns="http://www.w3.org/2000/svg" xmlns:xlink="http://www.w3.org/1999/xlink" xml:space="preserve" xmlns:serif="http://www.serif.com/" style="fill-rule:evenodd;clip-rule:evenodd;stroke-linejoin:round;stroke-miterlimit:2;"><path id="_6" serif:id="6" d="M9.588,9.68c1.291,0 2.412,-0.94 2.412,-2.322c0,-1.483 -0.917,-2.231 -2.254,-2.231c-0.724,0 -1.461,0.363 -2.049,0.94c0.045,-2.321 1.053,-3.103 2.208,-3.103c0.543,0 1.064,0.215 1.438,0.567l0.521,-0.578c-0.476,-0.442 -1.132,-0.77 -2.016,-0.77c-1.574,-0 -3.024,1.121 -3.024,4.02c0,2.322 1.19,3.477 2.764,3.477Zm-0,-0.736c-1.053,-0 -1.722,-0.748 -1.858,-2.141c0.578,-0.69 1.269,-0.973 1.846,-0.973c0.997,-0 1.541,0.543 1.541,1.528c-0,0.952 -0.669,1.586 -1.529,1.586Z" style="fill-rule:nonzero;"/><path id="H" d="M0,9.68l0.96,0l0,-3.531l3.131,-0l0,3.531l0.96,0l0,-7.497l-0.96,-0l0,3.143l-3.131,-0l0,-3.143l-0.96,-0l0,7.497Z" style="fill-rule:nonzero;"/><g id="Ebene1"></g></svg>